<?xml version="1.0" standalone="no"?>
<!DOCTYPE svg PUBLIC "-//W3C//DTD SVG 20010904//EN"
 "http://www.w3.org/TR/2001/REC-SVG-20010904/DTD/svg10.dtd">
<svg version="1.0" xmlns="http://www.w3.org/2000/svg"
 width="378.000000pt" height="378.000000pt" viewBox="0 0 378.000000 378.000000"
 preserveAspectRatio="xMidYMid meet">
<metadata>
Created by potrace 1.14, written by Peter Selinger 2001-2017
</metadata>
<g transform="translate(0.000000,378.000000) scale(0.100000,-0.100000)"
fill="#000000" stroke="none">
<path d="M1837 3237 c-38 -79 -162 -326 -276 -548 -396 -771 -1082 -2141
-1076 -2148 4 -3 645 -7 1426 -9 1146 -2 1419 0 1419 10 -1 7 -180 371 -400
808 -219 437 -538 1073 -707 1412 -169 340 -310 618 -313 618 -3 0 -36 -65
-73 -143z m209 -1266 c53 -136 170 -428 259 -651 89 -223 166 -415 169 -428
l7 -22 -283 2 -283 3 0 290 c0 160 -2 445 -4 635 l-5 345 -7 -235 c-3 -129 -7
-413 -8 -631 l-1 -397 -22 -6 c-13 -3 -142 -6 -287 -6 -207 0 -262 3 -258 12
3 7 102 254 220 548 191 478 320 789 349 844 10 18 13 16 34 -19 13 -22 67
-149 120 -284z"/>
</g>
</svg>
